<svg xmlns="http://www.w3.org/2000/svg" viewBox="0 0 48 48" width="48" height="48" style="width:100%;height:100%;transform:translate3d(0,0,0)"><defs><clipPath id="a"><path d="M0 0h48v48H0z"/></clipPath><clipPath id="b"><path d="M0 0h960v960H0z"/></clipPath><clipPath id="d"><path d="M0 0h960v1200H0z"/></clipPath><clipPath id="e"><path d="M0 0h960v960H0z"/></clipPath><mask id="c" mask-type="alpha"><g style="display:block"><path fill="#007E8A" d="M0-480c264.912 0 480 215.088 480 480 0 264.912-215.088 480-480 480-264.912 0-480-215.088-480-480 0-264.912 215.088-480 480-480z" transform="translate(480 480)"/><path fill-opacity="0" stroke="#00CCBE" stroke-width="0" d="M480 0c264.912 0 480 215.088 480 480 0 264.912-215.088 480-480 480C215.088 960 0 744.912 0 480 0 215.088 215.088 0 480 0z"/><path fill="#007E8A" d="M686.156-300.953v601.906H-686.156v-601.906H686.156z" transform="translate(622.156 775.047)"/><path fill-opacity="0" stroke="#00CCBE" stroke-width="0" d="M1308.312 474.094V1076H-64V474.094h1372.312z"/></g></mask><mask id="f"><path fill="#fff" d="m526.015 640.717-37.267-145.483-87.433 25.8 35.117 137.6-130.433 30.816 30.817 113.233L568.299 842.1l49.45-119.684 12.901-242.232L540.35 468l-14.335 172.717"/><path d="M453.631 713.1c-3.583-2.866-5.017-6.45-5.017-10.75s1.434-7.883 5.017-10.75c2.149-2.866 5.016-4.299 9.317-5.016 4.301 0 7.884.716 11.467 3.583 2.15 3.583 3.584 7.167 4.3 11.467.716 4.3 0 7.883-2.867 10.75-2.15 3.583-5.734 5.016-10.75 5.016-4.3 0-8.6-1.433-11.467-4.3m93.167-5.733c0 4.3-1.434 7.884-4.3 10.034-2.867 3.583-6.45 5.733-11.467 5.733-3.583-.716-7.167-2.15-10.033-5.017-2.867-2.15-4.3-5.733-5.016-10.75-.717-3.583 0-7.167 2.867-10.75 2.867-2.15 7.166-3.583 12.182-3.583 4.301 0 7.884 1.433 10.034 3.583 2.866 3.583 5.017 7.167 5.733 10.75"/></mask></defs><g clip-path="url(#a)"><g clip-path="url(#b)" transform="scale(.05)" style="display:block"><g style="display:block"><path fill="#EAEAEA" d="M480 0c264.912 0 480 215.088 480 480 0 264.912-215.088 480-480 480C215.088 960 0 744.912 0 480 0 215.088 215.088 0 480 0z"/><path d="M480 0c264.912 0 480 215.088 480 480 0 264.912-215.088 480-480 480C215.088 960 0 744.912 0 480 0 215.088 215.088 0 480 0z" fill="none"/></g><g mask="url(#c)" style="display:block"><g clip-path="url(#d)" transform="rotate(-9.5 -547.822 -197.08) scale(.95)"><path stroke="#00CCBE" stroke-width="65" d="M150-150v300h-300v-300h300z" fill="none" transform="translate(480 572)" style="display:block"/><g clip-path="url(#e)" transform="translate(-4 -160)" style="display:block"><path stroke-linecap="round" stroke="#F96" stroke-width="51" d="M50-160v-172l-22-92v-102" fill="none" transform="translate(480 840)" style="display:block"/><path stroke-linecap="round" stroke="#F96" stroke-width="51" d="M50-160v-172l-22-92v-102" fill="none" transform="translate(430 840)" style="display:block"/><path stroke-linecap="square" stroke-linejoin="round" stroke="#F96" stroke-width="55" d="M-46-316v-16l74-92v-102" fill="none" transform="translate(430 840)" style="display:block"/><path stroke-linecap="round" stroke="#F96" stroke-width="50" d="M2-160v-172l26-92v-102" fill="none" transform="translate(430 840)" style="display:block"/><path stroke-linecap="round" stroke="#F96" stroke-width="50" d="M98-160v-172l-30-92v-102" fill="none" transform="translate(480 840)" style="display:block"/><g style="display:block"><path fill="#007E89" d="M500 404V60"/><path stroke="#FB5058" stroke-width="200" d="M500 404V60" fill="none"/></g></g><g style="display:block"><path fill="#00CCBE" d="M801.5 582.5v531h-643v-531h643z"/><path d="M801.5 582.5v531h-643v-531h643z" fill="none"/></g><g mask="url(#f)" transform="matrix(.8 0 0 .8 100 324)" style="display:block"><path fill="#fff" d="M0 0h960v960H0z"/></g></g></g></g></g></svg>