<svg xmlns="http://www.w3.org/2000/svg" viewBox="0 0 48 48" width="48" height="48" style="width:100%;height:100%;transform:translate3d(0,0,0)"><defs><clipPath id="a"><path d="M0 0h48v48H0z"/></clipPath><clipPath id="b"><path d="M0 0h960v960H0z"/></clipPath><clipPath id="f"><path fill="#fff" d="M541.25 234.75c0 1-79.75 55.75-79.75 55.75l233.75 179.75L739 421S541.25 233.75 541.25 234.75"/></clipPath><clipPath id="e"><path fill="#fff" d="M5.32-29.694v17.493h31.216v-17.493H5.32"/></clipPath><clipPath id="d"><path fill="#fff" d="M-246.312-311.15V17.703h412V-311.15h-412"/></clipPath><clipPath id="c"><path fill="#fff" d="M-246.312-311.15V17.703h412V-311.15h-412"/></clipPath></defs><g clip-path="url(#a)"><g clip-path="url(#b)" transform="scale(.05)" style="display:block"><g style="display:block"><path fill="#EAEAEA" d="M480 0c264.912 0 480 215.088 480 480 0 264.912-215.088 480-480 480C215.088 960 0 744.912 0 480 0 215.088 215.088 0 480 0z"/><path d="M480 0c264.912 0 480 215.088 480 480 0 264.912-215.088 480-480 480C215.088 960 0 744.912 0 480 0 215.088 215.088 0 480 0z" fill="none"/></g><g clip-path="url(#c)" transform="rotate(-28.8 1562.806 9.089)" style="display:block"><path stroke-miterlimit="1" stroke="#91A7A7" stroke-width="50" d="M-14.697-94.297c60.709 0 110 49.291 110 110s-49.291 110-110 110-110-49.291-110-110 49.291-110 110-110z" fill="none"/></g><path stroke-miterlimit="1" stroke="#450064" stroke-width="50" d="M0-160c88.304 0 160 71.696 160 160S88.304 160 0 160-160 88.304-160 0-88.304-160 0-160z" fill="none" transform="translate(183.616 774.853)" style="display:block"/><path fill="#450064" d="M-118.25-96S-189.785-113.22-221-39.5C-244.5 16-197 67.25-138.5 65.75c0 .5 135-5.75 135-5.75S-35.305 145.666-53 186.5c-26 60 47 90 71 25 17.126-46.381 58-138 66.25-161 5.301-14.778 16.49-33.524-6.25-52C54-21-118.25-96-118.25-96z" transform="translate(480 480)" style="display:block"/><path fill="#450064" d="M245.25 302s-113.781 60.562-39.531 91.062c2.062.938 3.781 1.688 3.781 1.688l54.5 22s44.75 22.25 57.5-2.5S317.75 372 310.75 364s-65.5-62-65.5-62z" transform="rotate(-31.572 928.27 94.572) scale(.99994)" style="display:block"/><g clip-path="url(#d)" transform="rotate(-28.8 1858.807 -1143.755)" style="display:block"><path stroke-miterlimit="1" stroke="#91A7A7" stroke-width="50" d="M-14.697-94.297c60.709 0 110 49.291 110 110s-49.291 110-110 110-110-49.291-110-110 49.291-110 110-110z" fill="none"/></g><path stroke-miterlimit="1" stroke="#450064" stroke-width="50" d="M0-160c88.304 0 160 71.696 160 160S88.304 160 0 160-160 88.304-160 0-88.304-160 0-160z" fill="none" transform="translate(775.615 774.853)" style="display:block"/><path stroke-linecap="round" stroke-linejoin="round" stroke="#FB5058" stroke-width="2.5" d="m1 15.4-16.6-1.28L-7.2 1.4" fill="none" transform="translate(480 510) scale(18.75)" style="display:block"/><path fill="#91A7A7" d="M-61.031-294s-1.021 4.488-8.251 3.75c-46.5-4.75-142.343 210.531-142.343 210.562 0 .031 190.316-.187 190.316-.187L51.25-251.75-61.031-294z" transform="translate(478 483)" style="display:block"/><g style="display:block"><path fill="#F96" d="M526.52 54.003c43.297 0 78.45 35.153 78.45 78.45 0 43.296-35.153 78.45-78.45 78.45-43.296 0-78.45-35.154-78.45-78.45 0-43.297 35.154-78.45 78.45-78.45z"/><path fill="#91A7A7" d="m418.471 152.5-24.997 92.503 127.493 54.992 85.001-72.502L418.471 152.5z"/><path d="m418.471 152.5-24.997 92.503 127.493 54.992 85.001-72.502L418.471 152.5z" fill="none"/></g><g clip-path="url(#e)" transform="rotate(15 -686.336 506.84) scale(15.46875)" style="display:block"><path fill="#9C006D" d="M24.859-19.279c3.863 0 7 3.137 7 7s-3.137 7-7 7-7-3.137-7-7 3.137-7 7-7z"/></g><path stroke-linecap="round" stroke-linejoin="round" stroke="#FB5058" stroke-width="2.5" d="M10 1.4H-7.2l6.067 13.8L10 1.4z" fill="none" transform="translate(480 510) scale(18.75)" style="display:block"/><g style="display:block"><path fill="#91A7A7" d="M469.737 717.3c41.393 0 75 33.607 75 75 0 41.392-33.607 75-75 75-41.392 0-75-33.608-75-75 0-41.393 33.608-75 75-75z"/><path d="M469.737 717.3c41.393 0 75 33.607 75 75 0 41.392-33.607 75-75 75-41.392 0-75-33.608-75-75 0-41.393 33.608-75 75-75z" fill="none"/></g><path fill="#007E8A" d="M-30-130v290h-290v-290h290z" transform="rotate(30.742 -371.612 805.387)" style="display:block"/><g clip-path="url(#f)" style="display:block"><path fill="#91a7a7" d="M0 0h960v960H0z"/></g><path fill="#F96" d="M50-20v40c0 16.557-13.443 30-30 30h-40c-16.557 0-30-13.443-30-30v-40c0-16.557 13.443-30 30-30h40c16.557 0 30 13.443 30 30z" transform="rotate(-45 935.442 -654.857)" style="display:block"/><path stroke-linecap="round" stroke-linejoin="round" stroke="#FB5058" stroke-width="2.5" d="M15.747 14.08 9.6-2.212l3.067-.246" fill="none" transform="translate(480 510) scale(18.75)" style="display:block"/><path fill="#007E8A" d="M245.25 302s-113.781 60.562-39.531 91.062c2.062.938 3.781 1.688 3.781 1.688l54.5 22s44.75 22.25 57.5-2.5S317.75 372 310.75 364s-65.5-62-65.5-62z" transform="rotate(-7.858 4168.203 -1463.337) scale(.99994)" style="display:block"/><path fill="#007E8A" d="M-21.298-79.625s-190.268-.733-190.518.017C-268.099 4.68-181.952 68.159-181.952 68.159L-62.51 197.786s46.474 205.394 46.816 205.5c12.72 54.144 82.845 47.144 73.592-19.119C53.151 341.18 42.776 199.18 37.911 172.1c-3.635-27.17-10.003-34.701-10.003-34.701L-51.47-6.705l30.172-72.92z" transform="translate(479.849 480.07)" style="display:block"/></g></g></svg>