<svg xmlns="http://www.w3.org/2000/svg" width="88" height="88" fill="none" viewBox="0 0 88 88"><path fill="#00CCBE" fill-rule="evenodd" d="M17 17C9.825 24.471 6.1 33.313 6 44c0 10.502 3.725 19.461 11 27 .81.547 1.482 1.168 2 2 7.167 5.913 15.437 9 25 9s17.85-3.087 25-9c.535-.832 1.206-1.453 2-2 7.293-7.539 11-16.498 11-27-.067-10.687-3.775-19.529-11-27C63.461 9.707 54.502 6 44 6 33.531 6 24.59 9.707 17 17z" clip-rule="evenodd"/><path fill="#fff" fill-rule="evenodd" d="M21.669 30 17 65.815 64.331 72 69 36.185 21.669 30z" clip-rule="evenodd"/><path fill="#007E8A" fill-rule="evenodd" d="M23.495 18 21.5 30.5l47.5 6 2-12.283L23.495 18z" clip-rule="evenodd"/><path fill="#fff" fill-rule="evenodd" d="m28.127 15.64-1.108 8.263a1.753 1.753 0 0 0 .37 1.369 1.841 1.841 0 0 0 1.266.71 1.932 1.932 0 0 0 1.425-.355c.459-.338.723-.76.792-1.268l1.109-8.213a1.748 1.748 0 0 0-.37-1.369c-.351-.44-.792-.693-1.32-.76a1.821 1.821 0 0 0-1.425.406 1.74 1.74 0 0 0-.739 1.216zm26.437 2.087a1.815 1.815 0 0 0-1.254-.71 1.79 1.79 0 0 0-1.411.406 1.744 1.744 0 0 0-.732 1.216l-1.15 8.264c-.07.507.07.963.419 1.369a1.819 1.819 0 0 0 1.254.71 1.899 1.899 0 0 0 1.411-.355 2.148 2.148 0 0 0 .784-1.268l1.098-8.213c.07-.507-.07-.98-.419-1.42zm8.282.696a1.744 1.744 0 0 0-.731 1.216l-1.098 8.264c-.069.507.07.963.418 1.369a1.819 1.819 0 0 0 1.255.71 1.899 1.899 0 0 0 1.41-.355c.455-.338.716-.76.785-1.268l1.097-8.213a1.74 1.74 0 0 0-.418-1.42 1.815 1.815 0 0 0-1.254-.709c-.523-.068-1.01.067-1.464.406zm-20.285-2.696a1.83 1.83 0 0 0-1.262-.71 1.812 1.812 0 0 0-1.421.406c-.456.304-.702.71-.737 1.216l-1.105 8.264c-.105.507.018.963.369 1.369a1.834 1.834 0 0 0 1.262.71 2.094 2.094 0 0 0 1.474-.355c.42-.338.666-.76.736-1.268l1.105-8.213c.07-.507-.07-.98-.42-1.42z" clip-rule="evenodd"/><path fill="#00CCBE" fill-rule="evenodd" d="M39.524 39 40 35.434 36.476 35 36 38.518l3.524.482zm3.476.566 3.566.434.434-3.518L43.482 36 43 39.566zm10-2.084L49.482 37 49 40.518l3.566.482.434-3.518zm5 .952L54.429 38 54 41.518l3.524.482.476-3.566zm6 0L60.476 38 60 41.518l3.524.482.476-3.566zm-36 2.042L24.434 40 24 43.524l3.518.476.482-3.524zm2.434.524L30 44.566l3.518.434.482-3.566L30.434 41zM40 42.434 36.476 42 36 45.518l3.524.482.476-3.566zm6 1.042L42.482 43 42 46.524l3.566.476.434-3.524zm6-.042L48.482 43 48 46.518l3.566.482.434-3.566zm6 1.042L54.429 44 54 47.524l3.524.476.476-3.524zm6 1L60.476 45 60 48.524l3.524.476.476-3.524zm-37 2L23.434 47 23 50.524l3.518.476.482-3.524zm2.434.524L29 51.566l3.518.434.482-3.566L29.434 48zm9.566.476L35.476 48 35 51.524l3.524.476.476-3.524zm6 1L41.482 49 41 52.524l3.566.476.434-3.524zm6 .958L47.482 50 47 53.566l3.566.434.434-3.566zm6 1.042L53.429 51 53 54.524l3.524.476.476-3.524zm6 0L59.476 51 59 54.524l3.524.476.476-3.524zm-37 2L22.434 53 22 56.524l3.518.476.482-3.524zm2.434.524L28 57.566l3.518.434.482-3.566L28.434 54zM38 55.476 34.476 55 34 58.524l3.524.476.476-3.524zm6 1L40.482 56 40 59.524l3.566.476.434-3.524zm6-.042L46.482 56 46 59.566l3.566.434.434-3.566zm6 1.042L52.476 57 52 60.524l3.524.476.476-3.524zm6 1L58.476 58 58 61.524l3.524.476.476-3.524zm-37 2L21.434 60 21 63.524l3.518.476.482-3.524zm6-.047L27.434 60 27 63.524l3.518.476.482-3.571zm6 1.005L33.476 61 33 64.518l3.524.482.476-3.566zm6 1.042L39.476 62 39 65.524l3.524.476.476-3.524zm6 .958L45.482 63 45 66.518l3.566.482.434-3.566z" clip-rule="evenodd"/></svg>