<svg xmlns="http://www.w3.org/2000/svg" width="32" height="32" fill="none"><circle cx="16" cy="16" r="16" fill="#EAEAEA"/><path fill-rule="evenodd" clip-rule="evenodd" d="M10.766 13.633h11.067V10.5H10.766v3.133z" fill="#fff"/><g fill-rule="evenodd" clip-rule="evenodd"><path d="M0 15.98c0 3.107.762 5.883 2.288 8.328.029.056.064.113.106.169a17.698 17.698 0 002.289 2.84C7.805 30.439 11.578 32 16 32c4.407 0 8.18-1.56 11.316-4.683a17.7 17.7 0 002.289-2.84C31.2 21.99 32 19.158 32 15.979c0-4.408-1.561-8.18-4.684-11.317C24.18 1.554 20.407 0 16 0 11.578 0 7.805 1.554 4.683 4.662a16.359 16.359 0 00-2.395 3.01C.762 10.13 0 12.899 0 15.979z" fill="#EAEAEA"/><path d="M22.648.523L4.568 7.516v22.018l18.059-6.973.02-22.038z" fill="#450064"/><path d="M25.17 2.205L4.569 7.516v21.598l20.56-4.983.043-21.926z" fill="#CCC"/><path d="M26.011 4.727L4.568 7.517v22.017l21.422-2.79.021-22.017z" fill="#fff"/><path d="M26.852 7.691l-18.08-.02v21.842l18.06.021.02-21.843z" fill="#017C88"/><path d="M8.773 7.691l-4.184-.02-.02 21.863h4.204V7.691z" fill="#FB5058"/><path d="M22.132 13.314l-.404-.43-2.53 2.449-.426-.494a35.01 35.01 0 011.361-1.482c.057-.043.397-.372 1.021-.988l-.49-.494-2.466 2.32-.064.064-.064.065c-.51.615-.567 1.253-.17 1.911l-5.764 4.961 1.51 1.61 5.04-5.67c.767.46 1.454.452 2.064-.02a.138.138 0 01.064-.065l.042-.043c.014-.014.022-.028.022-.043l2.19-2.577-.447-.408c-.552.559-1.375 1.382-2.467 2.47l-.446-.516c1.02-1.102 1.829-1.975 2.424-2.62m-6.705 3.41l.65.678 1.105-1.102-4.572-4.425c-.245 2.047.354 4.01 1.799 5.886l1.018-1.037m2.175 2.385l3.043 3.698 1.582-1.61-3.515-3.436-1.11 1.348" fill="#fff"/></g></svg>
