<svg xmlns="http://www.w3.org/2000/svg" width="371" height="76" fill="none"><g clip-path="url(#a)"><path fill-rule="evenodd" clip-rule="evenodd" d="M99.6 56.657h6.2l-1-4.963V22.017h-5.9v13.546c-1.9-2.171-4.3-3.412-7.2-3.412-5.9 0-10.6 5.067-10.6 12.512s4.6 12.511 10.6 12.511c3 0 5.5-1.344 7.3-3.515l.6 2.998zM217.1 38.77c1.2 0 2.3.31 3.4 1.034l2.8-6.618a8.012 8.012 0 0 0-4.3-1.24c-2.7 0-4.9 1.24-6.3 3.618l-.6-2.998H206l1 4.653v19.336h5.9v-15.2c.7-1.551 2.2-2.585 4.2-2.585zm17.4 11.994c-3.4 0-6-2.378-6-6.1 0-3.723 2.5-6.101 6-6.101s6 2.378 6 6.1c0 3.723-2.5 6.101-6 6.101zm-147.6-6.1c0-3.723 2.5-6.101 6-6.101s6 2.378 6 6.1c0 3.723-2.5 6.101-6 6.101s-6-2.378-6-6.1zm173.9 6.1c-3.4 0-6-2.378-6-6.1 0-3.723 2.5-6.101 6-6.101s6 2.378 6 6.1c0 3.723-2.5 6.101-6 6.101zM120.2 38.252c3.1 0 5.1 1.447 5.7 4.24h-11.4c.7-2.793 2.7-4.24 5.7-4.24zm71.1 0c3.1 0 5.1 1.447 5.7 4.24h-11.4c.7-2.793 2.7-4.24 5.7-4.24zm-29 18.405h9.6l6.2-23.99h-6.5l-4.6 19.44-4.6-19.44H156l6.3 23.99zm-15.3 0h5.9v-23.99H147v23.99zm-25.9.517c3.3 0 6.6-.93 9.3-2.792l-2.3-5.273c-2.1 1.137-4.5 1.861-6.9 1.861-3.1 0-5.3-1.24-6.3-3.619h16.7c.2-.93.3-1.758.3-2.792 0-7.445-5-12.408-11.6-12.408-6.7 0-11.6 5.067-11.6 12.512 0 7.548 4.9 12.511 12.4 12.511zm151.5-12.511c0-7.445-5-12.512-11.8-12.512-6.7 0-11.8 5.067-11.8 12.512s5 12.511 11.8 12.511c6.8 0 11.8-5.066 11.8-12.511zm-80.5 12.511c3.3 0 6.6-.93 9.3-2.792l-2.3-5.273c-2.1 1.137-4.5 1.861-6.9 1.861-3.1 0-5.3-1.24-6.3-3.619h16.7c.2-.93.3-1.758.3-2.792 0-7.445-5-12.408-11.6-12.408-6.7 0-11.6 5.067-11.6 12.512 0 7.651 4.9 12.511 12.4 12.511zm42.4 0c6.8 0 11.8-5.066 11.8-12.511 0-7.445-5-12.512-11.8-12.512-6.7 0-11.8 5.067-11.8 12.512.1 7.445 5.1 12.511 11.8 12.511zm-98.8-.517h5.9v-34.64h-5.9v34.64zM150 29.36c2.1 0 3.7-1.654 3.7-3.93 0-2.274-1.6-3.928-3.7-3.928s-3.8 1.654-3.8 3.929 1.6 3.93 3.8 3.93zM47.9.096l-3.4 33.296L38.6 5.37 20.4 9.299l5.8 28.125L0 43.112 4.6 65.55l46.1 10.133L61.3 51.28l5-49.116L47.9.096zM33.3 48.385c-1 .93-2.2.827-3.5.31-1.3-.413-1.9-2.068-1.4-4.136.4-1.447 2.1-1.758 3-1.758.3 0 .7.104 1 .207.6.31 1.7.93 1.9 1.861.2 1.551-.1 2.689-1 3.516zm13.3 1.551c-.7 1.24-2.5 1.448-4.3.517-1.2-.62-1.2-2.171-1.1-3.102.1-.517.3-1.034.6-1.448.4-.517 1.1-1.24 2-1.344 1.3 0 2.5.62 3.2 1.758.7 1.137.3 2.378-.4 3.619z" fill="#fff"/><path d="M285.4 52.315v16.544h-3.8V32.358h3.8V36.7c1.9-2.999 4.8-4.86 8.4-4.86 6.4 0 11.3 5.17 11.3 12.615s-4.8 12.615-11.3 12.615c-3.6.103-6.5-1.758-8.4-4.756zm15.9-7.756c0-5.48-3.4-9.1-7.9-9.1s-7.9 3.62-7.9 9.1c0 5.48 3.4 9.1 7.9 9.1s7.9-3.62 7.9-9.1zm9.2 12.098V20.26h3.8v36.397h-3.8zm27.299-4.342c-1.5 3.205-4.2 4.86-7.4 4.86-5.1 0-9-3.413-9-11.065V32.358h3.8v12.925c0 5.687 2.4 8.48 6.3 8.48s6.3-2.793 6.3-8.48V32.358h3.8v24.3h-3.8v-4.343zm19.6 4.859c-5.7 0-10-2.895-10-8.065h3.9c0 3.309 2.6 4.963 6.1 4.963 3.3 0 5.4-1.344 5.4-3.929 0-6.618-14.8-1.654-14.8-11.374 0-4.24 3.8-6.928 8.7-6.928 5.4 0 9.4 3.309 9.4 7.652h-3.9c0-2.586-2.3-4.55-5.5-4.55-3 0-5 1.344-5 3.619 0 6.204 14.9 1.448 14.9 11.374.1 4.653-3.8 7.238-9.2 7.238z" fill="#43B8B2"/></g><defs><clipPath id="a"><path fill="#fff" transform="translate(0 .096)" d="M0 0h370.6v75.587H0z"/></clipPath></defs></svg>