<svg xmlns="http://www.w3.org/2000/svg" width="88" height="88" fill="none" viewBox="0 0 88 88"><path fill="#FB5058" d="M82 44c0-10.45-3.73-19.405-11.189-26.864C63.422 9.712 54.485 6 44 6 33.55 6 24.595 9.712 17.136 17.136 9.712 24.596 6 33.55 6 44c0 10.485 3.712 19.422 11.136 26.811C24.596 78.271 33.55 82 44 82c10.485 0 19.422-3.73 26.811-11.189C78.271 63.422 82 54.485 82 44z"/><path fill="#C94046" d="m19 70 2.5-6L68 25.5 73 36 53 83 19 70z"/><path fill="#FD969B" fill-rule="evenodd" d="m4 50 28 27 37.5-37.5V12H42L4 50zm52-19a5 5 0 1 0 0-10 5 5 0 0 0 0 10z" clip-rule="evenodd"/><path fill="#C94046" fill-rule="evenodd" d="M69.5 30.863C76.562 29.89 82 23.83 82 16.5 82 8.492 75.508 2 67.5 2S53 8.492 53 16.5c0 5.283 2.825 9.906 7.048 12.441v-.006A4.977 4.977 0 0 0 60.999 26a5 5 0 0 0-.204-1.42A10.478 10.478 0 0 1 57 16.5C57 10.701 61.701 6 67.5 6S78 10.701 78 16.5c0 5.115-3.658 9.376-8.5 10.31v4.053z" clip-rule="evenodd"/><path fill="#FB5058" d="M38 32h-3v24h3V32z"/><path fill="#FB5058" fill-rule="evenodd" d="M33 44a5 5 0 1 1-10 0 5 5 0 0 1 10 0zm-3 0a2 2 0 1 1-4 0 2 2 0 0 1 4 0zm20 0a5 5 0 1 1-10 0 5 5 0 0 1 10 0zm-3 0a2 2 0 1 1-4 0 2 2 0 0 1 4 0z" clip-rule="evenodd"/><path fill="#C94046" fill-rule="evenodd" d="M60.771 27.5a5 5 0 1 0-9.542 0 5.002 5.002 0 0 1 9.542 0z" clip-rule="evenodd"/></svg>