<svg xmlns="http://www.w3.org/2000/svg" width="88" height="88" fill="none" viewBox="0 0 88 88"><path fill="#00CCBE" d="M70.87 20.13C63.45 12.71 54.493 9 44 9c-10.493 0-19.45 3.71-26.87 11.13C9.71 27.55 6 36.507 6 47c0 10.493 3.71 19.45 11.13 26.87C24.55 81.29 33.507 85 44 85c10.493 0 19.45-3.71 26.87-11.13C78.29 66.45 82 57.493 82 47c0-10.493-3.71-19.45-11.13-26.87z"/><path fill="#FA5058" d="M28.212 60.964c1.688-.656 2.532-1.453 2.532-2.39 0-.951-.844-1.761-2.532-2.431-1.687-.656-3.722-.984-6.106-.984s-4.42.328-6.107.984c-1.687.67-2.53 1.48-2.53 2.43 0 .938.843 1.735 2.53 2.391 1.688.656 3.723.984 6.107.984 2.384 0 4.42-.328 6.106-.984z"/><path fill="#FA5058" d="M30.743 58.473V55.14H13.448v3.334h17.295z"/><path fill="#FABE00" d="M28.212 57.529c1.688-.67 2.531-1.48 2.531-2.43 0-.938-.843-1.742-2.53-2.411-1.688-.656-3.724-.984-6.108-.984-2.383 0-4.425.328-6.126.984-1.688.67-2.531 1.473-2.531 2.41 0 .951.843 1.761 2.53 2.43 1.702.657 3.744.985 6.127.985 2.384 0 4.42-.328 6.107-.984z"/><path fill="#FA5058" d="M28.212 56.404c1.688-.656 2.532-1.453 2.532-2.39 0-.951-.844-1.755-2.532-2.41-1.687-.67-3.722-1.005-6.106-1.005s-4.42.335-6.107 1.004c-1.687.656-2.53 1.46-2.53 2.41 0 .938.843 1.735 2.53 2.391 1.688.656 3.723.984 6.107.984 2.384 0 4.42-.328 6.106-.984z"/><path fill="#FA5058" d="M30.743 53.933V50.6H13.448v3.334h17.295z"/><path fill="#FABE00" d="M28.212 52.97c1.688-.67 2.531-1.48 2.531-2.431 0-.938-.843-1.735-2.53-2.39-1.688-.67-3.724-1.005-6.108-1.005-2.397 0-4.439.334-6.126 1.004-1.688.656-2.531 1.453-2.531 2.39 0 .951.843 1.762 2.53 2.431 1.688.683 3.73 1.025 6.127 1.025 2.384 0 4.42-.342 6.107-1.025z"/><path fill="#FA5058" d="M28.212 51.884c1.688-.656 2.532-1.453 2.532-2.39 0-.95-.844-1.754-2.532-2.41-1.687-.67-3.722-1.005-6.106-1.005s-4.42.335-6.107 1.004c-1.687.657-2.53 1.46-2.53 2.41 0 .938.843 1.735 2.53 2.391 1.688.683 3.723 1.025 6.107 1.025 2.384 0 4.42-.342 6.106-1.025z"/><path fill="#FA5058" d="M30.743 49.414v-3.335H13.448v3.335h17.295z"/><path fill="#FABE00" d="M22.105 42.644c-2.397 0-4.439.328-6.126.984-1.688.657-2.531 1.467-2.531 2.431 0 .924.843 1.72 2.53 2.39 1.688.67 3.73 1.005 6.127 1.005 2.384 0 4.42-.335 6.107-1.005 1.688-.67 2.531-1.466 2.531-2.39 0-.964-.843-1.774-2.53-2.43-1.688-.657-3.724-.985-6.108-.985z"/><path fill="#FA5058" d="M22.106 41.6c-2.384 0-4.42.328-6.107.984-1.687.683-2.53 1.493-2.53 2.43 0 .951.843 1.755 2.53 2.41 1.688.657 3.723.985 6.107.985 2.384 0 4.42-.328 6.106-.984 1.688-.656 2.532-1.46 2.532-2.41 0-.938-.844-1.748-2.532-2.431-1.687-.656-3.722-.985-6.106-.985z"/><path fill="#FA5058" d="M30.743 41.58H13.448v3.334h17.295v-3.335z"/><path fill="#FABE00" d="M13.448 41.56c0 .937.843 1.747 2.53 2.43 1.702.656 3.744.984 6.127.984 2.384 0 4.42-.328 6.107-.984 1.688-.683 2.531-1.493 2.531-2.43 0-.952-.843-1.762-2.53-2.431-1.688-.656-3.724-.984-6.108-.984-2.383 0-4.425.328-6.126.984-1.688.67-2.531 1.48-2.531 2.43z"/><path fill="#FA5058" d="M16 42.925c1.687.657 3.722.985 6.106.985s4.42-.328 6.106-.985c1.688-.656 2.532-1.46 2.532-2.41 0-.938-.844-1.734-2.532-2.39-1.687-.684-3.722-1.025-6.106-1.025s-4.42.341-6.107 1.024c-1.687.657-2.53 1.453-2.53 2.39 0 .952.843 1.755 2.53 2.411z"/><path fill="#FA5058" d="M13.448 37.1v3.334h17.295V37.1H13.448z"/><path fill="#FABE00" d="M15.979 39.49c1.687.67 3.73 1.005 6.127 1.005 2.383 0 4.419-.335 6.106-1.005 1.688-.683 2.531-1.493 2.531-2.43 0-.951-.843-1.755-2.53-2.41-1.688-.67-3.724-1.005-6.108-1.005-2.397 0-4.439.335-6.126 1.004-1.688.657-2.531 1.46-2.531 2.41 0 .938.843 1.748 2.53 2.431z"/><path fill="#FA5058" d="M16 38.406c1.687.67 3.722 1.004 6.106 1.004s4.42-.335 6.106-1.004c1.688-.657 2.532-1.46 2.532-2.41 0-.938-.844-1.735-2.532-2.391-1.687-.683-3.722-1.025-6.106-1.025s-4.42.342-6.107 1.025c-1.687.656-2.53 1.453-2.53 2.39 0 .95.843 1.754 2.53 2.41z"/><path fill="#FA5058" d="M13.448 32.58v3.335h17.295V32.58H13.448z"/><path fill="#FABE00" d="M15.979 34.95c1.687.684 3.73 1.025 6.127 1.025 2.383 0 4.419-.341 6.106-1.024 1.688-.67 2.531-1.467 2.531-2.39 0-.965-.843-1.775-2.53-2.431-1.688-.657-3.724-.985-6.108-.985-2.397 0-4.439.328-6.126.985-1.688.656-2.531 1.466-2.531 2.43 0 .924.843 1.721 2.53 2.39z"/><path fill="#007E8A" d="M75.579 60.723v-.201c-.067-2.062-2.177-3.83-6.328-5.303-4.058-1.433-8.919-2.183-14.584-2.25h-.823c-5.665.067-10.533.817-14.604 2.25-4.151 1.473-6.26 3.24-6.327 5.303v.2c.067 2.063 2.176 3.83 6.327 5.304 4.071 1.433 8.94 2.183 14.604 2.25h.823c5.665-.067 10.526-.817 14.584-2.25 4.151-1.473 6.26-3.24 6.328-5.303z"/><path fill="#fff" d="M63.13 15.588V9H36.87v6.588c-.027 1.602-.603 2.976-1.726 4.124a7.568 7.568 0 0 1-.699.637v.021a5.795 5.795 0 0 0-.698.617c-1.137 1.176-1.72 2.579-1.747 4.208V60.41c.055 1.8 1.836 3.344 5.343 4.634C40.767 66.292 44.87 66.943 49.65 67h.698c4.781-.057 8.884-.708 12.309-1.955 3.506-1.29 5.287-2.834 5.342-4.634V25.195c-.027-1.63-.61-3.032-1.747-4.208a5.795 5.795 0 0 0-.698-.616v-.022a7.568 7.568 0 0 1-.699-.637c-1.123-1.148-1.698-2.522-1.726-4.123z"/><path fill="#F84F57" d="M63.868 9.44v-.082c-.027-1.192-1.366-2.216-4.018-3.073C57.185 5.429 53.971 5 50.208 5c-3.776 0-7.003.429-9.682 1.286-2.625.857-3.95 1.881-3.977 3.073v.08c.027 1.192 1.352 2.21 3.977 3.054a4.678 4.678 0 0 0 .462.14c2.585.777 5.658 1.165 9.22 1.165 3.55 0 6.616-.388 9.2-1.165a5.658 5.658 0 0 0 .442-.14c2.652-.844 3.991-1.862 4.018-3.054z"/><path fill="#FABE00" d="M57.922 11.207c2.143-.576 3.214-1.259 3.214-2.049s-1.071-1.473-3.214-2.049c-2.13-.562-4.694-.843-7.694-.843-3.026 0-5.604.28-7.733.843-2.13.576-3.194 1.259-3.194 2.05 0 .79 1.064 1.472 3.194 2.048 2.129.563 4.707.844 7.733.844 3 0 5.565-.281 7.694-.844z"/><path fill="#450064" d="M56.355 9.982V8.576H43.88v1.406h12.475z"/><path fill="#00CCBE" d="M32.431 60.522v.16c.054 1.701 1.795 3.161 5.223 4.38 3.348 1.178 7.359 1.794 12.032 1.848h.684c4.674-.054 8.685-.67 12.033-1.848 3.428-1.219 5.169-2.678 5.223-4.38v-.16c-.054-1.7-1.795-3.16-5.223-4.379-3.348-1.178-7.359-1.794-12.033-1.848h-.682c-4.674.053-8.685.67-12.033 1.848-3.428 1.219-5.17 2.678-5.223 4.379z"/><path fill="#FABE00" d="M49.505 37.522c-1.42 1.42-2.129 3.12-2.129 5.102 0 1.982.71 3.676 2.13 5.082 1.419 1.42 3.113 2.13 5.081 2.13 1.996 0 3.696-.71 5.103-2.13 1.392-1.406 2.089-3.1 2.089-5.082 0-1.982-.697-3.683-2.09-5.102-1.406-1.393-3.106-2.09-5.102-2.09-1.968 0-3.662.697-5.082 2.09z"/><path fill="#FA5058" d="M34.058 56.404c0 .857.77 1.587 2.31 2.19 1.54.602 3.395.904 5.564.904 2.183 0 4.044-.302 5.584-.904 1.54-.603 2.31-1.333 2.31-2.19s-.77-1.587-2.31-2.19c-1.54-.615-3.401-.923-5.584-.923-2.17 0-4.024.308-5.564.924-1.54.602-2.31 1.332-2.31 2.19z"/><path fill="#FA5058" d="M34.038 53.29v3.054h15.788V53.29H34.038z"/><path fill="#FABE00" d="M34.038 53.25c0 .857.763 1.594 2.29 2.21 1.54.616 3.408.924 5.604.924 2.183 0 4.044-.308 5.584-.924 1.54-.616 2.31-1.353 2.31-2.21 0-.87-.77-1.6-2.31-2.19-1.54-.615-3.401-.923-5.584-.923-2.196 0-4.064.308-5.604.924-1.527.589-2.29 1.319-2.29 2.19z"/><path fill="#FA5058" d="M64.109 61.044c1.54-.602 2.31-1.332 2.31-2.19 0-.856-.77-1.593-2.31-2.209-1.54-.603-3.401-.904-5.584-.904-2.17 0-4.024.301-5.564.904-1.54.616-2.31 1.353-2.31 2.21s.77 1.587 2.31 2.19c1.54.602 3.394.903 5.564.903 2.183 0 4.044-.301 5.584-.904z"/><path fill="#FA5058" d="M66.42 58.754v-3.033H50.63v3.033h15.79z"/><path fill="#FABE00" d="M64.11 57.91c1.54-.615 2.31-1.352 2.31-2.209 0-.87-.77-1.614-2.31-2.23-1.54-.602-3.402-.904-5.585-.904-2.17 0-4.031.302-5.585.904-1.54.616-2.31 1.36-2.31 2.23 0 .857.77 1.594 2.31 2.21 1.554.602 3.415.904 5.585.904 2.183 0 4.044-.302 5.584-.904z"/><path fill="#FA5058" d="M45.428 59.86c-2.17 0-4.025.307-5.565.923-1.54.603-2.31 1.34-2.31 2.21 0 .857.77 1.587 2.31 2.19 1.54.615 3.395.923 5.565.923 2.182 0 4.044-.308 5.584-.924 1.54-.602 2.31-1.332 2.31-2.19 0-.87-.77-1.606-2.31-2.209-1.54-.616-3.402-.924-5.584-.924z"/><path fill="#FA5058" d="M37.533 59.86v3.052h15.789V59.86H37.533z"/><path fill="#FABE00" d="M39.843 62.049c1.54.602 3.402.904 5.585.904s4.044-.302 5.584-.904c1.54-.616 2.31-1.353 2.31-2.21 0-.87-.77-1.607-2.31-2.21-1.54-.602-3.401-.904-5.584-.904s-4.045.302-5.585.904c-1.54.603-2.31 1.34-2.31 2.21 0 .857.77 1.594 2.31 2.21z"/><path fill="#FA5058" d="M39.943 53.09c0 .857.77 1.586 2.31 2.19 1.54.602 3.395.903 5.565.903 2.183 0 4.044-.301 5.584-.904s2.31-1.332 2.31-2.19c0-.87-.77-1.6-2.31-2.189-1.54-.616-3.401-.924-5.584-.924-2.17 0-4.024.308-5.565.924-1.54.59-2.31 1.32-2.31 2.19z"/><path fill="#FA5058" d="M39.923 53.01h15.79v-3.034h-15.79v3.033z"/><path fill="#FABE00" d="M39.923 49.916c0 .87.77 1.614 2.31 2.23 1.54.615 3.402.923 5.585.923s4.044-.308 5.584-.924c1.54-.616 2.31-1.359 2.31-2.23 0-.856-.77-1.586-2.31-2.189-1.54-.616-3.401-.924-5.584-.924s-4.044.308-5.585.924c-1.54.603-2.31 1.333-2.31 2.19z"/><path fill="#FA5058" d="M36.167 52.467c.429.75 1.453 1.018 3.074.803 1.647-.214 3.415-.843 5.303-1.888 1.915-1.071 3.401-2.243 4.46-3.515 1.057-1.272 1.372-2.29.943-3.053-.415-.75-1.44-1.018-3.073-.804-1.647.214-3.422.85-5.323 1.908-1.902 1.058-3.382 2.223-4.44 3.496-1.044 1.272-1.359 2.29-.944 3.053z"/><path fill="#FA5058" d="m34.64 49.735 1.487 2.672 13.8-7.634-1.487-2.671-13.8 7.633z"/><path fill="#FABE00" d="M45.347 41.238c-1.647.214-3.422.857-5.323 1.928-1.915 1.045-3.395 2.21-4.44 3.496-1.057 1.285-1.379 2.303-.964 3.053.416.75 1.453 1.024 3.114.823 1.634-.214 3.401-.843 5.303-1.888 1.915-1.058 3.401-2.236 4.46-3.535 1.03-1.272 1.339-2.283.923-3.033-.415-.764-1.44-1.045-3.073-.844z"/><path fill="#FA5058" d="M59.65 56.042c1.553.603 2.611.583 3.174-.06.602-.63.542-1.68-.181-3.154-.724-1.486-1.889-2.98-3.496-4.479-1.58-1.473-3.147-2.511-4.7-3.114-1.54-.602-2.605-.582-3.194.06-.576.657-.502 1.715.221 3.174.71 1.487 1.861 2.974 3.455 4.46 1.607 1.46 3.18 2.497 4.72 3.113z"/><path fill="#FA5058" d="m62.864 55.942 2.089-2.23-11.59-10.706-2.05 2.23 11.55 10.706z"/><path fill="#FABE00" d="M56.576 42.925c-1.54-.602-2.604-.589-3.194.04-.589.63-.529 1.708.181 3.235.723 1.46 1.888 2.939 3.495 4.439 1.58 1.486 3.154 2.524 4.721 3.113 1.54.59 2.605.57 3.194-.06.59-.643.529-1.7-.18-3.174-.724-1.5-1.89-2.986-3.496-4.459-1.58-1.486-3.154-2.531-4.72-3.134z"/><path fill="#450064" d="M29.257 57.91c-.964-.508-2.016-.595-3.154-.26L9.531 62.49c-.576.175-.877.369-.904.583h-.02v4.299h.02c-.054.228.16.462.643.703l19.887 10.767c.964.522 2.015.616 3.153.281l16.552-4.841c.576-.174.89-.368.944-.583v-4.298c.027-.215-.194-.456-.662-.723L29.257 57.91z"/><path fill="#450064" d="M29.257 57.91c-.964-.508-2.015-.595-3.153-.26L9.53 62.49c-1.138.335-1.225.764-.26 1.286l19.886 10.747c.964.536 2.015.636 3.154.301l16.552-4.86c1.138-.336 1.232-.764.281-1.287L29.257 57.911z"/><path fill="#CCC" d="m33.335 60.12-3.957-2.129L9.39 63.837l3.957 2.149 19.987-5.866z"/><path fill="#fff" d="m34.62 70.264-1.908.563c-.562.173-.602.382-.12.623l1.587.863c.468.268.984.322 1.546.161l1.909-.562c.562-.174.602-.389.12-.643l-1.567-.864c-.482-.254-1.004-.301-1.567-.14zm-4.499 1.326-1.888.543c-.576.174-.623.388-.14.642l1.586.864c.482.255 1.011.302 1.587.14l1.888-.562c.576-.16.623-.375.14-.642l-1.586-.864c-.482-.255-1.011-.295-1.587-.12z"/><path fill="#FABE00" d="m37.854 66.81 1.607.863a1.112 1.112 0 0 0 .221.1 1.234 1.234 0 0 0 .221.141l1.587.864c.014 0 .027.007.04.02.014.013.034.02.06.02l1.588.864c.482.268 1.004.315 1.567.14l1.888-.562c.576-.16.63-.375.16-.643l-1.587-.864c-.026 0-.046-.006-.06-.02-.013-.013-.033-.02-.06-.02l-1.567-.863a339.417 339.417 0 0 0-.281-.12l-.18-.121-1.588-.864c-.482-.268-1.01-.315-1.587-.14l-1.888.562c-.576.16-.623.375-.14.642z"/><path fill="#fff" d="m36.027 63.515-1.888.563c-.576.16-.623.374-.141.642l1.587.864c.482.254 1.011.295 1.587.12l1.888-.542c.576-.174.623-.388.14-.643l-1.606-.863c-.469-.255-.991-.302-1.567-.14zm-3.757-2.029-1.888.563c-.576.16-.623.375-.14.642l1.587.864c.482.255 1.01.295 1.587.12l1.888-.562c.576-.16.622-.368.14-.622l-1.607-.864c-.468-.255-.99-.302-1.567-.14zm6.85 7.453-1.868.561c-.576.16-.63.368-.161.623l1.587.864c.482.267 1.01.314 1.587.14l1.888-.542c.576-.174.623-.395.14-.663l-1.586-.844c-.483-.254-1.011-.301-1.587-.14zm-3.776-2.049-1.889.562c-.575.174-.622.382-.14.623l1.567.864c.495.268 1.03.314 1.607.14l1.888-.542c.576-.174.616-.395.12-.663l-1.586-.844c-.47-.254-.991-.3-1.567-.14zm-3.777-2.05-1.888.563c-.576.174-.623.389-.141.643l1.587.844c.469.268.99.314 1.567.14l1.888-.542c.576-.174.623-.395.14-.663l-1.566-.844c-.482-.254-1.011-.3-1.587-.14z"/><path fill="#FABE00" d="m27.77 62.792-1.888.562c-.576.174-.623.389-.14.643l1.607.864c.468.254.99.294 1.567.12l1.888-.542c.576-.174.622-.388.14-.643l-1.587-.864c-.482-.254-1.01-.3-1.587-.14z"/><path fill="#fff" d="m30.864 68.216-1.909.542c-.575.174-.622.388-.14.643l1.587.864c.482.254 1.01.3 1.587.14l1.908-.562c.563-.175.603-.389.12-.643l-1.586-.864c-.482-.254-1.005-.295-1.567-.12zm-3.777-2.049-1.908.542c-.576.174-.623.395-.14.663l1.586.844c.483.254 1.012.3 1.587.14l1.889-.562c.562-.174.609-.389.14-.643l-1.587-.844c-.482-.268-1.004-.314-1.567-.14zm-.723 3.354-1.888.563c-.562.16-.609.368-.14.622l1.587.864c.495.268 1.03.315 1.607.14l1.888-.562c.562-.16.602-.375.12-.642l-1.587-.864c-.482-.255-1.01-.295-1.587-.12zm-3.756-2.049-1.888.563c-.576.16-.63.375-.16.643l1.586.843c.482.268 1.011.315 1.587.14l1.888-.562c.576-.16.623-.375.14-.642l-1.586-.844c-.482-.268-1.005-.315-1.567-.14z"/><path fill="#FA5058" d="M24.858 64.258c-.482-.267-1.005-.314-1.567-.14l-6.368 1.868c-.576.16-.622.375-.14.643l1.587.863c.482.255 1.01.295 1.586.12l6.388-1.867c.563-.174.603-.382.12-.623l-1.606-.864zm31.778 13.459c1.688.67 3.723 1.004 6.107 1.004 2.384 0 4.42-.334 6.107-1.004 1.687-.656 2.53-1.46 2.53-2.41 0-.938-.843-1.735-2.53-2.39-1.688-.684-3.723-1.025-6.107-1.025-2.384 0-4.42.341-6.107 1.024-1.687.656-2.53 1.453-2.53 2.39 0 .951.843 1.755 2.53 2.411z"/><path fill="#FA5058" d="M54.085 71.892v3.334H71.38v-3.334H54.085z"/><path fill="#FABE00" d="M56.616 74.262c1.687.683 3.73 1.024 6.127 1.024 2.383 0 4.419-.341 6.106-1.024 1.688-.67 2.531-1.466 2.531-2.39 0-.965-.843-1.775-2.53-2.431-1.688-.656-3.724-.984-6.107-.984-2.397 0-4.44.328-6.127.984-1.687.656-2.531 1.466-2.531 2.43 0 .925.844 1.721 2.531 2.39z"/></svg>