<svg xmlns="http://www.w3.org/2000/svg" xmlns:xlink="http://www.w3.org/1999/xlink" width="600" height="600" viewBox="0 0 600 600"><defs><path d="M33.251.203c-1.302.774-2.812 1.533-4.7 2.29C14.577 8.086.047 17.622.047 17.622s0 16.999 12.44 30.77c8.743 9.68 18.512 10.833 25.65 26.033 2.538 5.405 9.438 18.56 20.581 24.036 14.196 6.978 37.351 3.816 37.351 3.816s2.287-13.354 12.577-27.852a165.186 165.186 0 0 0 3.237-4.724V.203H33.251Z" id="a"/><path d="M28.55 52.802c10.7-4.283 9.272-8.646 26.423-15.513 17.151-6.868 22.992-1.653 34.807-5.85 11.815-4.196 13.802-12.164 24.855-17.124 11.053-4.96 18.785-4.416 23.74-5.56 4.955-1.145 12.196-4.197 17.15-7.25 4.956-3.052 10.772-1.733 5.718 6.486-5.66 9.206-3.811 15.261-6.48 22.51-2.667 7.249-10.671 10.683-11.814 23.654-1.144 12.972-17.914 18.313-18.295 31.285-.381 12.972-5.717 24.8-16.007 39.297-10.291 14.498-12.578 27.85-12.578 27.85s-23.057 2.962-37.35-3.814c-8.167-3.871-18.388-18.483-20.582-24.036-6.757-17.108-17.461-16.746-25.465-27.047C4.668 87.39.047 67.934.047 67.934s14.53-9.537 28.504-15.132" id="c"/><path d="M19.778 85.704C18.646 84.887-1.046 70.406.188 51.363c1.27-19.607 3.6-32.117 14.27-38.984C24.697 5.791 35.779.117 51.11.116c.649 0 1.302.01 1.966.03C62.474.44 76.25 5.28 86.24 16.76v68.944H19.78Z" id="e"/></defs><g fill="none" fill-rule="evenodd"><path fill="#00A396" d="M0 0h600v600H0z"/><path fill="#00CCBD" d="M290.595 77 116.458 190.029 69 369.481l169.878 133.51 265.876-83.836 24.155-255.237z"/><path d="M162.034 327.132c-17.096 12.955-27.775 23.065-35.776 38.69-7.038 20.01-28.39 93.517-28.39 93.517l51.666 20.118c9.419-54.599 13.34-71.041 15.816-82.315 0 0 31.733-4.639 44.94-28.925 4.235-7.787 8.634-18.388 8.634-18.388l-39.033-34.202s-13.09 7.894-17.857 11.505" fill="#450063"/><path d="M169.982 281.785c10.699-4.284 9.272-8.646 26.423-15.514 17.15-6.867 22.991-1.652 34.806-5.85 11.816-4.196 13.803-12.163 24.856-17.123 11.053-4.96 18.785-4.417 23.74-5.561 4.954-1.145 12.196-4.197 17.15-7.249 4.955-3.052 10.772-1.734 5.718 6.486-5.661 9.206-3.812 15.26-6.48 22.51-2.668 7.248-10.672 10.682-11.815 23.654-1.143 12.972-17.913 18.313-18.294 31.285-.381 12.971-5.717 24.799-16.008 39.296-10.29 14.498-12.577 27.851-12.577 27.851s-23.058 2.961-37.351-3.815c-8.166-3.87-18.388-18.482-20.581-24.036-6.758-17.108-17.462-16.745-25.466-27.046-8.003-10.301-12.624-29.756-12.624-29.756s14.53-9.537 28.503-15.132" fill="#FFE500"/><g transform="translate(141.432 228.983)"><g transform="translate(0 50.31)"><mask id="b" fill="#fff"><use xlink:href="#a"/></mask><path d="M22.453.203s-1.934 17.202 3.401 26.103S38.62 34.24 48.338 44.349c9.236 9.608 11.516 21.745 16.386 27.084 8.002 8.773 24.294 11.17 34.71 9.899 10.417-1.272 12.45-2.035 12.45-2.035l-16.26 32.045S40.5 126.947 6.954 72.939c-17.218-27.721-11.94-60.528-11.94-60.528L22.452.203Z" fill="#FF8200" mask="url(#b)"/></g><mask id="d" fill="#fff"><use xlink:href="#c"/></mask><use fill="#FFE500" xlink:href="#c"/><path d="M22.453 50.513s-1.934 17.202 3.401 26.103C31.19 85.518 38.62 84.55 48.338 94.66c9.236 9.609 11.516 21.746 16.386 27.084 8.002 8.774 24.294 11.17 34.71 9.9 10.417-1.272 12.45-2.035 12.45-2.035l-16.26 32.044S40.5 177.257 6.954 123.25C-10.263 95.528-4.985 62.72-4.985 62.72l27.438-12.208Zm114.29-4.454c-6.527-.968-15.955 2.178-18.13 9.195-2.176 7.018 1.53 16.537 8.903 18.957 7.374 2.42 12.496 3.21 15.593.967 5.012-3.63 10.073-15.44 4.754-22.828-2.94-4.085-11.12-6.291-11.12-6.291M49.48 41.954c-1.03 3.097 0 10.3 4.574 13.542 4.573 3.242 13.068 3.452 17.148.826 5.335-3.433 7.05-9.918 6.669-14.877-.402-5.232-4.002-10.172-9.908-10.744-5.907-.573-15.053.953-18.482 11.253" fill="#FF8200" mask="url(#d)"/><path d="M73.766 84.285c3.092-4.162 14.27-8.401 20.873-5.843 6.603 2.559 11.29 11.94 7.881 18.976-3.408 7.036-11.928 10.66-18.743 9.381-6.816-1.279-17.679-12.194-10.011-22.514m39.736-74.311c-1.428 9.83 4.001 14.114 8.003 14.495 4.001.382 9.146.573 12.766-3.051 3.62-3.624 4.762-9.918 2.096-13.733-4.777-6.834-21.34-8.202-22.865 2.289" fill="#FF8200" mask="url(#d)"/></g><path fill="#FFF" d="m237.465 273.69-5.029 2.156 2.515 6.293 5.918-1.333zm14.101-17.214-2.43 6.49 5.013 1.548 1.909-6.438zm-55.496 41.926-2.335 6.293 6.106.899.898-6.113zm-22.36-8.382.752 5.492h6.04v-5.589zm49.47 53.698-1.7 6.652 7.267 1.438 1.257-6.652zm25.375-41.031 1.258 4.916 6.828-.703-.542-5.291z"/><path d="M323.284 305.163s83.214 104.15 86.017 106.384c2.804 2.234 5.462.848 5.036-3.344-2.851-28.031-17.894-140.088-17.894-140.088l-73.16 37.048Z" fill="#FFE500"/><path fill="#FF8200" d="m365.749 359.916-1.316-1.016 36.244-47.005 1.316 1.017zm-12.745-13.106-1.223-1.126 48.122-52.358.285 2.148zm-6.248-15.29-1.224-1.127 14.63-15.917 2.036.242zm29.054 38.231-1.244-1.104 36.208-40.899 1.244 1.104zm15.027 19.499-1.125-1.388 26.165-46.218 1.447.82zm8.959 11.007-1.145-1.4 11.801-22.576.372 2.88z"/><path fill="#FFF" d="m250.854 328.237-2.874 5.214 4.85 1.977 2.693-4.494zm32.491-80.745-1.034 5.467h6.008v-5.467zm-61.705 45.025-2.777 6.147 6.19.9 2.334-3.524zm44.627-27.898 1.002 5.357 5.851-1.79v-5.221zm12.788-72.298 16.507 24.619 2.625-1.848-13.333-25.944zm26.574 19.457c.56-3.385 4.238-27.796 4.238-27.796l5.552 1.164-6.391 27.386-3.4-.754Zm9.777 5.358 2.758 1.972 18.2-25.432-5.334-3.433zM300.02 266.47c1.27-19.606 3.6-32.116 14.27-38.983 10.67-6.867 22.255-12.741 38.617-12.232 15.293.475 42.175 12.995 45.478 46.566 1.022 10.389.513 6.49.513 6.49s10.411-.822 13.206 4.1c2.795 4.923 1.397 13.824-3.176 16.876-4.573 3.052-10.79 1.523-13.581 1.98-3.44.564-3.991 6.667-5.855 8.373-1.653 1.514-7.621 5.591-12.703 3.596 0 0-2.856 8.086-7.999 9.958-9.785 3.56-14.612-1.272-14.612-1.272s-.147 5.804-6.098 8.901c-8.468 4.409-14.566-2.034-14.566-2.034s-3.472 7.692-10.332 7.28c-6.86-.414-14.87-16.026-3.522-25.221 0 0-20.91-14.77-19.64-34.378"/><g transform="translate(299.831 215.108)"><mask id="f" fill="#fff"><use xlink:href="#e"/></mask><path d="M83.389 7.5s6.44 13.367-.04 19.552c-6.48 6.186-9.733-4.55-15.273.395-2.498 2.229 1.189 25.903-6.235 28.1-4.92 1.455-7.854 2.266-12.592-6.199-2.241-4.004-6.26-5.3-7.022 2.015-.763 7.315 3.357 14.143-4.23 14.525-7.586.381-7.891-13.801-11.016-13.26-5.254.91-.92 11.321-1.825 21.24-.905 9.92-7.386 12.465-15.358 11.712C1.827 84.828-37.256 22.76.008-.512 37.272-23.785 70.049-14.628 83.388 7.5" fill="#450063" mask="url(#f)"/></g><path d="M152.138 384.158s1.993-24.513 6.086-33.585 32.391-18.13 38.304-23.082c5.913-4.951 8.83-9.049 8.83-9.049s5.437.203 6.862 5.122c1.137 3.927.387 10.358-5.72 14.456-6.106 4.098-1.142.455-1.142.455s-6.1 10.017-15.766 11.269c0 0 .67 6.943-8.705 9.903l-28.749 24.51Z" fill="#450063"/><path d="M341.729 332.65c-.117-3.378.375-4.766 5.589-5.469 5.214-.703 9.152-.779 13.72-.127 5.554.793 12.996 2.22 13.7 6.176 1.035 5.83-.588 6.41-4.91 7.457-4.32 1.047-11.343-.532-11.343-.532s-16.37 3.644-16.756-7.506" fill="#FFF"/><path d="M346.517 344.766c-.943 6.485 6.07 8.315 10.354 9.391 4.153 1.043 17.783 3.179 21.213 1.653 3.43-1.526 7.015-7.41-.113-11.064s-11.765-1.76-11.765-1.76-13.296-5.413-16.35-3.526c-3.055 1.887-2.94 2.558-3.34 5.306" fill="#FFF"/><path d="M363.603 369.288c6.824 1.244 20.25-.56 22.05-2.51 1.222-1.324 1.68-2.974 1.006-5.31-1.064-3.682-8.194-6.372-13.529-5.56-5.335.812-5.996 0-5.996 0s-10.31-2.641-11.398 2.7c-1.088 5.34 1.014 9.432 7.867 10.68m9.417 10.849s2.611 3.197 8.633 2.635c6.022-.561 10.974-4.962 10.956-7.44-.016-2.108-.757-5.19-6.754-6.055-5.997-.865-12.834 2.941-13.758 4.844-.924 1.904-.875 4.628.924 6.016m33.239-82.26c-2.667-1.526-8.13-1.341-10.011 6.797-1.299 5.613 2.005 11.923 2.005 11.923s-.123 12.492 6.382 19.846c-3.838 4.853 2.746 20.956 2.746 20.956l5.992 42.194 10.884 3.928s13.087 29.603 15.415 37.216l48.779-15.5s-29.754-42.785-35.39-55.25c-9.708-21.47-23.122-23.502-29.78-33.963-1.015-1.597-10.777-11.733-12.555-17.074-1.778-5.34-4.466-21.073-4.466-21.073m-92.304-189.299-4.574 7.534 8.385 4.579 2.425-8.012zm-69.737 31.386 1.21 9.586h7.504v-9.116zm89.869 16.203-3.037 9.786h6.783l3.557-5.897zm-55.982-12.309v8.011l8.074-1.958v-7.579zm84.314-2.106-5.905 4.769 4.639 5.672 5.767-4.719zm10.639 43.712-1.18 9.253h8.581v-9.015zm-74.86-21.727 2.032-2.459 1.609 4.79 4.488 1.06-4.065 3.306.34 5.12-4.659-3.764-4.234.763 2.032-4.747-1.693-3.56m56.12 18.544-.946-6.04 4.065 2.967 4.51-2.14.063 5.277 3.81 2.288-5.208 2.353-1.947 4.26-2.602-4.492-5.359-.408zm-89.585-16.034-1.323-3.99 4.004 1.348 3.864-2.877.067 5.573 3.93 3.097-5.131.893-1.711 4.572-2.2-4.771-4.606-.351zm-6.916 26.164-5.906 4.77 4.64 5.671 5.766-4.719zm-48.717 126.06s3.013.508 2.632 3.051c-.382 2.544-3.748 6.676-3.748 6.676s-4.406-3.78-3.987-4.184c.419-.403 5.103-5.544 5.103-5.544" fill="#FFF"/><path d="M363.769 330.551s.342 6.485.52 7.82c0 0 4.624.954 6.149 0 1.524-.953 1.842-1.737 1.46-3.698-.38-1.96-1.968-3.295-8.13-4.122m6.162 15.959s-.636 6.485-.572 6.803c.063.318 6.034 1.462 7.75.7 1.714-.764 2.349-2.032 2.222-3.623-.127-1.591-1.975-3.626-4.29-3.88-2.316-.254-5.11 0-5.11 0m6.257 12.843v6.486s5.954.445 7.415-.382c1.46-.827 1.913-3.688.58-4.896-1.334-1.208-7.995-1.208-7.995-1.208m6.192 13.734 2.575 5.404s3.776-1.559 4.284-2.496c.509-.937 1.017-3.735-1.333-4.307-2.35-.572-5.526 1.399-5.526 1.399m25.571-66.029-4.484.795s-1.524-5.722 0-7.63c1.524-1.907 2.9-1.732 2.9-1.732l1.584 8.567Zm-111.222-15.244c-5.348 3.768-10.819 9.734-7.09 12.343 4.754 3.326 7.09-12.343 7.09-12.343m8.254 11.963s-5.33 10.22-3.54 13.441c1.792 3.22 5.001 1.626 5.262-.046.642-4.123-1.54-11.381-1.722-13.395m-12.799 12.993s-4.91 4.264-7.11 9.977c-2.199 5.713 4.607 6.946 5.763 2.358.86-3.417.766-8.287 1.347-12.336" fill="#450063"/><path fill="#FFF" d="m313.2 244.482-3.482 7.554 3.85-.194 1.557-7.457zm7.142-11.526 3.61-1.148 2.523 7.988s-2.618 1.677-2.84 1.109c-.22-.569-3.293-7.95-3.293-7.95m13.68-.468 3.85-.193-.242 10.562s-2.519-.19-3.125-.74c-.607-.548-.483-9.629-.483-9.629m5.688-9.971-.813 2.359 8.14 1.137-.135-2.698zm10.526 17.697-2.086 8.155 2.527.646 2.121-7.736zm5.029-11.33.135 2.698 9.944-1.851-1.195-3.225zm-30.747 29.624 8.759-6.236 1.685 2.814-8.772 5.978zm-17.348 7.363 8.322 4.219 1.658-3.297-8.599-3.313z"/><path d="M403.503 235.519c5.865-.173 13 1.165 11.724 5.047-1.627 4.948-11.724-5.047-11.724-5.047m.501 13.036s9.32 4.47 9.764 7.747c.445 3.278-2.717 3.86-3.803 2.8-2.677-2.615-5.01-9.002-5.961-10.547" fill="#450063"/></g></svg>